<svg width="287" height="287" viewBox="0 0 287 287" fill="none" xmlns="http://www.w3.org/2000/svg">
<g clip-path="url(#clip0_6_152)">
<path d="M143.502 287.003C222.755 287.003 287.003 222.755 287.003 143.502C287.003 64.2478 222.755 0 143.502 0C64.2478 0 0 64.2478 0 143.502C0 222.755 64.2478 287.003 143.502 287.003Z" fill="#8ACC36"/>
<path d="M85.7598 161.163C106.707 161.163 123.689 144.182 123.689 123.234C123.689 102.286 106.707 85.3051 85.7598 85.3051C64.8122 85.3051 47.8308 102.286 47.8308 123.234C47.8308 144.182 64.8122 161.163 85.7598 161.163Z" fill="white"/>
<path d="M88.5701 146.413C100.013 146.413 109.289 137.136 109.289 125.694C109.289 114.251 100.013 104.974 88.5701 104.974C77.1273 104.974 67.8511 114.251 67.8511 125.694C67.8511 137.136 77.1273 146.413 88.5701 146.413Z" fill="#1A212D"/>
<path d="M102.97 121.126C107.043 121.126 110.345 117.824 110.345 113.75C110.345 109.677 107.043 106.375 102.97 106.375C98.8965 106.375 95.5945 109.677 95.5945 113.75C95.5945 117.824 98.8965 121.126 102.97 121.126Z" fill="white"/>
<path d="M201.24 161.163C222.188 161.163 239.169 144.182 239.169 123.234C239.169 102.286 222.188 85.3051 201.24 85.3051C180.293 85.3051 163.311 102.286 163.311 123.234C163.311 144.182 180.293 161.163 201.24 161.163Z" fill="white"/>
<path d="M198.43 146.413C209.873 146.413 219.149 137.136 219.149 125.694C219.149 114.251 209.873 104.974 198.43 104.974C186.987 104.974 177.711 114.251 177.711 125.694C177.711 137.136 186.987 146.413 198.43 146.413Z" fill="#1A212D"/>
<path d="M211.774 121.126C215.847 121.126 219.149 117.824 219.149 113.75C219.149 109.677 215.847 106.375 211.774 106.375C207.7 106.375 204.398 109.677 204.398 113.75C204.398 117.824 207.7 121.126 211.774 121.126Z" fill="white"/>
<path d="M201.341 190.008C201.341 205.86 194.918 220.208 184.531 230.598C174.144 240.985 159.793 247.408 143.941 247.408H143.059C111.358 247.408 85.6591 221.709 85.6591 190.008H201.341Z" fill="#709B34"/>
<path d="M201.341 190.008C201.341 196.324 200.322 202.4 198.439 208.081C197.179 211.884 193.609 214.441 189.602 214.441H97.4009C93.3944 214.441 89.8242 211.884 88.564 208.081C86.6813 202.4 85.6621 196.321 85.6621 190.008H201.344H201.341Z" fill="white"/>
</g>
<defs>
<clipPath id="clip0_6_152">
<rect width="287" height="287" fill="white"/>
</clipPath>
</defs>
</svg>
