<svg width="288" height="287" viewBox="0 0 288 287" fill="none" xmlns="http://www.w3.org/2000/svg">
<g clip-path="url(#clip0_6_127)">
<path d="M144.002 287.003C223.531 287.003 288.003 222.755 288.003 143.502C288.003 64.2478 223.531 0 144.002 0C64.4717 0 0 64.2478 0 143.502C0 222.755 64.4717 287.003 144.002 287.003Z" fill="#EFC029"/>
<path d="M86.0586 161.163C107.079 161.163 124.12 144.182 124.12 123.234C124.12 102.286 107.079 85.3051 86.0586 85.3051C65.038 85.3051 47.9975 102.286 47.9975 123.234C47.9975 144.182 65.038 161.163 86.0586 161.163Z" fill="white"/>
<path d="M88.8787 146.413C100.361 146.413 109.67 137.136 109.67 125.694C109.67 114.251 100.361 104.974 88.8787 104.974C77.396 104.974 68.0875 114.251 68.0875 125.694C68.0875 137.136 77.396 146.413 88.8787 146.413Z" fill="#1A212D"/>
<path d="M103.328 121.126C107.416 121.126 110.729 117.824 110.729 113.75C110.729 109.677 107.416 106.375 103.328 106.375C99.2411 106.375 95.9275 109.677 95.9275 113.75C95.9275 117.824 99.2411 121.126 103.328 121.126Z" fill="white"/>
<path d="M201.941 161.163C222.962 161.163 240.003 144.182 240.003 123.234C240.003 102.286 222.962 85.3051 201.941 85.3051C180.921 85.3051 163.88 102.286 163.88 123.234C163.88 144.182 180.921 161.163 201.941 161.163Z" fill="white"/>
<path d="M199.121 146.413C210.604 146.413 219.913 137.136 219.913 125.694C219.913 114.251 210.604 104.974 199.121 104.974C187.639 104.974 178.33 114.251 178.33 125.694C178.33 137.136 187.639 146.413 199.121 146.413Z" fill="#1A212D"/>
<path d="M212.512 121.126C216.599 121.126 219.913 117.824 219.913 113.75C219.913 109.677 216.599 106.375 212.512 106.375C208.424 106.375 205.111 109.677 205.111 113.75C205.111 117.824 208.424 121.126 212.512 121.126Z" fill="white"/>
<path d="M202.042 194.13H85.9575V208.847H202.042V194.13Z" fill="#B79430"/>
</g>
<defs>
<clipPath id="clip0_6_127">
<rect width="288" height="287" fill="white"/>
</clipPath>
</defs>
</svg>
