<svg width="287" height="287" viewBox="0 0 287 287" fill="none" xmlns="http://www.w3.org/2000/svg">
<g clip-path="url(#clip0_6_213)">
<path d="M143.498 287C222.751 287 286.997 222.754 286.997 143.502C286.997 64.2496 222.751 0.00311279 143.498 0.00311279C64.2465 0.00311279 0 64.2496 0 143.502C0 222.754 64.2465 287 143.498 287Z" fill="#D62B2B"/>
<path d="M85.7598 161.163C106.707 161.163 123.689 144.182 123.689 123.234C123.689 102.286 106.707 85.3051 85.7598 85.3051C64.8122 85.3051 47.8308 102.286 47.8308 123.234C47.8308 144.182 64.8122 161.163 85.7598 161.163Z" fill="white"/>
<path d="M88.5701 146.413C100.013 146.413 109.289 137.136 109.289 125.694C109.289 114.251 100.013 104.974 88.5701 104.974C77.1273 104.974 67.8511 114.251 67.8511 125.694C67.8511 137.136 77.1273 146.413 88.5701 146.413Z" fill="#1A212D"/>
<path d="M102.97 121.126C107.043 121.126 110.345 117.824 110.345 113.75C110.345 109.677 107.043 106.375 102.97 106.375C98.8965 106.375 95.5945 109.677 95.5945 113.75C95.5945 117.824 98.8965 121.126 102.97 121.126Z" fill="white"/>
<path d="M201.24 161.163C222.188 161.163 239.169 144.182 239.169 123.234C239.169 102.286 222.188 85.3051 201.24 85.3051C180.293 85.3051 163.311 102.286 163.311 123.234C163.311 144.182 180.293 161.163 201.24 161.163Z" fill="white"/>
<path d="M198.43 146.413C209.873 146.413 219.149 137.136 219.149 125.694C219.149 114.251 209.873 104.974 198.43 104.974C186.987 104.974 177.711 114.251 177.711 125.694C177.711 137.136 186.987 146.413 198.43 146.413Z" fill="#1A212D"/>
<path d="M211.774 121.126C215.847 121.126 219.149 117.824 219.149 113.75C219.149 109.677 215.847 106.375 211.774 106.375C207.7 106.375 204.398 109.677 204.398 113.75C204.398 117.824 207.7 121.126 211.774 121.126Z" fill="white"/>
<path d="M93.8368 224.544C92.5705 224.544 91.2889 224.217 90.1202 223.531C86.6142 221.477 85.4394 216.961 87.493 213.452C87.6913 213.113 92.4301 205.103 101.453 197.176C113.586 186.514 127.872 180.881 142.766 180.881C157.66 180.881 171.944 186.517 184.079 197.176C193.099 205.1 197.841 213.113 198.039 213.452C200.093 216.958 198.912 221.468 195.406 223.522C191.906 225.572 187.408 224.4 185.349 220.91C185.303 220.833 181.379 214.3 174.019 207.932C164.562 199.748 154.047 195.601 142.766 195.601C131.485 195.601 120.973 199.751 111.514 207.932C104.148 214.306 100.223 220.842 100.184 220.91C98.8167 223.247 96.3634 224.544 93.8399 224.544H93.8368Z" fill="#962A2A"/>
<path d="M122.856 78.47H48.6669V93.1869H122.856V78.47Z" fill="#962A2A"/>
<path d="M238.333 78.47H164.144V93.1869H238.333V78.47Z" fill="#962A2A"/>
</g>
<defs>
<clipPath id="clip0_6_213">
<rect width="287" height="287" fill="white"/>
</clipPath>
</defs>
</svg>
